General
Complete name                    : Ong Bak 2 (2008) BRRip 720P (Hindi)
Format                           : Matroska
File size                        : 1.44 GiB
Duration                         : 1h 32mn
Overall bit rate                 : 2 238 Kbps

Video
ID                               : 1
Format                           : AVC
Format/Info                      : Advanced Video Codec
Format profile                   : High@L4.1
Format settings, CABAC           : Yes
Format settings, ReFrames        : 4 frames
Muxing mode                      : Header stripping
Codec ID                         : V_MPEG4/ISO/AVC
Duration                         : 1h 32mn
Bit rate                         : 1 938 Kbps
Nominal bit rate                 : 1 813 Kbps
Width                            : 1 280 pixels
Height                           : 544 pixels
Display aspect ratio             : 2.35:1
Frame rate                       : 25.000 fps
Color space                      : YUV
Chroma subsampling               : 4:2:0
Bit depth                        : 8 bits
Scan type                        : Progressive
Bits/(Pixel*Frame)               : 0.111
Stream size                      : 1.25 GiB (87%)

Audio
ID                               : 2
Format                           : AC-3
Format/Info                      : Audio Coding 3
Mode extension                   : CM (complete main)
Muxing mode                      : Header stripping
Codec ID                         : A_AC3
Duration                         : 1h 32mn
Bit rate mode                    : Constant
Bit rate                         : 256 Kbps
Channel(s)                       : 6 channels
Channel positions                : Front: L C R, Side: L R, LFE
Sampling rate                    : 48.0 KHz
Bit depth                        : 16 bits
Compression mode                 : Lossy
Stream size                      : 168 MiB (11%)
Title                            : nsh168810 - 5.1ch
Language                         : Hindi



Screenshots :
 
http://img29.imageshack.us/img29/9591/33800630.jpg 
http://img832.imageshack.us/img832/1223/49010686.jpg 
http://img14.imageshack.us/img14/5651/76358292.jpg 
http://img687.imageshack.us/img687/2715/57368484.jpg 
http://img220.imageshack.us/img220/9205/14649883.jpg 
http://img9.imageshack.us/img9/7656/58093606.jpg 
http://img24.imageshack.us/img24/9353/54736853.jpg


SAMPLE & SCREENSHOTS INCLUDED.